<svg width="500" height="295" viewBox="0 0 500 295" fill="none" xmlns="http://www.w3.org/2000/svg">
<path d="M109.16 0.353677C109.839 0.35 110.518 0.346324 111.219 0.342535C113.482 0.331572 115.746 0.327668 118.01 0.323846C119.638 0.317576 121.266 0.310929 122.894 0.303933C128.227 0.282966 133.56 0.272543 138.892 0.262567C140.73 0.258517 142.568 0.2544 144.406 0.250217C153.036 0.231187 161.666 0.216947 170.296 0.208605C180.256 0.198817 190.216 0.172448 200.175 0.132104C207.878 0.101971 215.581 0.0871387 223.284 0.0838236C227.883 0.0814714 232.482 0.0724882 237.082 0.0473624C241.405 0.0241236 245.728 0.0198314 250.051 0.0301238C251.638 0.0306202 253.224 0.02427 254.81 0.0105677C256.976 -0.00709685 259.141 -7.38762e-05 261.307 0.0131007C262.519 0.0107123 263.73 0.008324 264.979 0.00586327C268.794 0.597707 270.442 1.82273 273.17 4.50085C275.364 8.88907 274.479 14.7478 274.52 19.6217C274.536 21.0776 274.564 22.5334 274.602 23.9889C274.657 26.0936 274.678 28.1963 274.693 30.3016C274.713 31.5614 274.733 32.8213 274.753 34.1193C274.02 38.3677 272.424 39.7836 269.17 42.5008C268.84 42.8308 268.51 43.1608 268.17 43.5008C266.102 43.6012 264.032 43.6299 261.962 43.6321C260.978 43.6353 260.978 43.6353 259.975 43.6386C257.76 43.6446 255.546 43.6436 253.331 43.6427C251.75 43.6457 250.168 43.6492 248.586 43.6532C245.169 43.6611 241.752 43.6663 238.335 43.6695C232.921 43.6754 227.506 43.692 222.092 43.7109C220.237 43.7172 218.383 43.7235 216.529 43.7298C215.135 43.7346 215.135 43.7346 213.713 43.7394C201.105 43.7815 188.496 43.8144 175.887 43.8268C167.389 43.8352 158.891 43.8578 150.393 43.8961C145.899 43.9158 141.406 43.9283 136.912 43.9233C132.672 43.9186 128.432 43.9327 124.191 43.9603C122.646 43.9672 121.101 43.9674 119.556 43.9601C99.6872 43.8757 81.718 49.4203 67.1738 63.3734C52.7325 77.7974 45.0823 95.1383 44.6072 115.563C44.6345 134.52 51.5676 153.224 64.8572 166.876C79.9783 181.593 99.1456 187.992 119.949 187.889C121.285 187.893 122.62 187.898 123.955 187.905C127.544 187.919 131.133 187.913 134.721 187.904C138.498 187.896 142.274 187.903 146.05 187.908C152.386 187.913 158.722 187.906 165.058 187.892C172.361 187.876 179.664 187.881 186.967 187.897C193.264 187.911 199.562 187.913 205.859 187.905C209.609 187.9 213.358 187.9 217.107 187.91C221.288 187.92 225.468 187.906 229.649 187.889C230.875 187.895 232.101 187.901 233.365 187.907C246.473 187.811 257.343 184.187 267.045 175.126C272.059 169.758 274.359 163.604 276.166 156.579C277.615 153.578 279.4 152.338 282.17 150.501C285.428 149.983 285.428 149.983 289.08 149.97C291.059 149.962 291.059 149.962 293.078 149.954C293.76 149.962 294.442 149.971 295.145 149.979C297.23 150.001 299.313 149.98 301.398 149.954C302.716 149.959 304.034 149.964 305.392 149.97C307.198 149.976 307.198 149.976 309.041 149.983C312.743 150.596 313.922 151.553 316.17 154.501C319.07 167.083 312.169 181.083 305.799 191.595C301.7 197.94 296.562 203.25 291.17 208.501C290.446 209.21 289.723 209.919 288.978 210.649C268.848 229.275 242.799 231.881 216.746 231.545C212.777 231.503 208.809 231.51 204.84 231.511C198.191 231.504 191.543 231.464 184.895 231.4C177.26 231.326 169.627 231.298 161.992 231.296C153.776 231.294 145.559 231.261 137.343 231.218C135.011 231.208 132.679 231.203 130.347 231.199C114.588 231.161 99.4018 231.03 84.1697 226.501C82.4409 226.062 80.7119 225.624 78.9822 225.188C50.5047 216.105 27.0441 195.021 13.1618 168.806C8.62342 159.78 5.57274 150.296 3.16966 140.501C2.98419 139.781 2.79873 139.061 2.60765 138.319C-4.15147 109.151 2.64711 79.5178 18.1697 54.5008C21.194 49.8892 24.5607 45.6749 28.1697 41.5008C28.5971 40.9926 29.0246 40.4844 29.4651 39.9608C48.5606 17.3349 79.0544 0.459817 109.16 0.353677Z" fill="white"/>
<path d="M298.415 69.1945C299.504 69.1861 300.593 69.1778 301.716 69.1692C305.299 69.1452 308.883 69.1364 312.467 69.1298C314.982 69.1208 317.497 69.1117 320.012 69.1024C325.284 69.0859 330.556 69.0782 335.828 69.0753C341.201 69.0721 346.574 69.0511 351.947 69.0138C358.473 68.9692 365 68.9498 371.527 68.9486C373.993 68.9444 376.46 68.9322 378.927 68.9111C410.8 68.6604 436.891 76.5006 461.17 97.5009C462.201 98.2846 463.232 99.0684 464.295 99.8759C468.791 103.981 472.448 108.696 476.17 113.501C477.086 114.676 477.086 114.676 478.021 115.876C482.95 122.538 486.782 129.723 490.166 137.264C490.828 138.739 491.507 140.206 492.205 141.663C501.728 162.064 502.141 192.26 494.717 213.528C494.206 214.854 493.69 216.178 493.17 217.501C492.633 218.981 492.096 220.462 491.56 221.942C483.328 243.841 468.258 264.137 448.17 276.501C447.123 277.157 446.076 277.813 444.998 278.489C428.048 288.815 409.966 293.968 390.068 293.921C388.722 293.928 387.377 293.937 386.032 293.946C382.427 293.968 378.822 293.972 375.218 293.97C372.198 293.97 369.178 293.978 366.158 293.986C359.039 294.006 351.92 294.009 344.801 294.002C337.464 293.995 330.129 294.018 322.793 294.055C316.473 294.086 310.154 294.097 303.834 294.093C300.068 294.091 296.302 294.097 292.537 294.121C288.35 294.148 284.164 294.134 279.978 294.116C278.733 294.129 277.488 294.143 276.206 294.156C275.068 294.145 273.93 294.134 272.758 294.122C271.275 294.123 271.275 294.123 269.762 294.124C266.156 293.257 265.112 291.579 263.17 288.501C262.636 285.167 262.636 285.167 262.603 281.407C262.597 280.738 262.591 280.069 262.584 279.379C262.577 277.971 262.581 276.562 262.593 275.154C262.607 273.006 262.573 270.863 262.535 268.716C262.534 267.342 262.536 265.968 262.541 264.595C262.54 263.354 262.539 262.113 262.539 260.835C263.392 256.328 264.423 255.185 268.17 252.501C272.351 251.775 276.487 251.894 280.721 251.968C282.679 251.972 284.637 251.976 286.596 251.979C288.698 251.987 290.801 252.008 292.903 252.032C297.307 252.08 301.711 252.087 306.115 252.087C317.854 252.093 329.592 252.153 341.331 252.24C349.034 252.296 356.737 252.329 364.441 252.319C368.092 252.316 371.741 252.328 375.392 252.379C397.249 252.674 416.221 250.448 433.17 235.501C433.818 234.938 434.466 234.374 435.135 233.794C448.509 221.298 456.698 202.631 457.373 184.399C457.726 164.359 451.791 147.275 438.092 132.411C426.775 120.809 410.24 111.671 393.701 111.354C391.882 111.339 390.064 111.329 388.246 111.324C387.25 111.317 386.254 111.311 385.228 111.304C381.936 111.284 378.645 111.273 375.353 111.263C374.225 111.259 373.098 111.254 371.936 111.25C365.963 111.229 359.991 111.215 354.018 111.206C347.871 111.195 341.723 111.16 335.576 111.121C330.831 111.094 326.086 111.086 321.34 111.082C319.076 111.078 316.811 111.066 314.546 111.047C298.103 110.921 283.346 111.503 270.392 123.091C264.573 129.384 260.944 137.121 259.822 145.591C258.883 148.34 257.668 149.032 255.17 150.501C250.741 151.075 246.303 151.016 241.843 151.002C239.676 151.001 237.512 151.043 235.345 151.087C233.964 151.092 232.582 151.095 231.201 151.095C229.949 151.102 228.696 151.109 227.406 151.116C224.17 150.501 224.17 150.501 221.766 148.112C218.439 142.67 219.578 136.962 221.017 130.977C228.036 108.281 241.656 89.7753 262.502 77.8446C274.244 71.9305 285.354 69.2031 298.415 69.1945Z" fill="url(#paint0_linear_13_6)"/>
<defs>
<linearGradient id="paint0_linear_13_6" x1="359.732" y1="68.9053" x2="359.732" y2="294.156" gradientUnits="userSpaceOnUse">
<stop stop-color="#FF58D5"/>
<stop offset="1" stop-color="#4E6EFF"/>
</linearGradient>
</defs>
</svg>
