<?xml version="1.0" encoding="UTF-8"?>
<svg version="1.1" xmlns="http://www.w3.org/2000/svg" width="1254" height="1254">
<path d="M0 0 C2.42488416 -0.00379132 4.84976614 -0.00929801 7.27464294 -0.01637268 C13.13206561 -0.02880164 18.9892481 -0.0228414 24.84666 -0.0076971 C31.68636167 0.00930341 38.52601114 0.00593546 45.36572745 0.00220882 C57.57654425 -0.00364689 69.78725739 0.01041432 81.99804688 0.03515625 C93.81481811 0.05909667 105.63145105 0.06614731 117.44824219 0.05566406 C130.3608361 0.04422898 143.27336634 0.04235467 156.18595952 0.05676216 C157.56516245 0.0582878 158.9443654 0.05980815 160.32356834 0.06132317 C161.00192865 0.06208098 161.68028896 0.06283879 162.37920565 0.06361957 C167.13425078 0.06834035 171.88926724 0.06652692 176.6443119 0.06225777 C183.05246328 0.05746806 189.46042456 0.06767219 195.86853981 0.08921242 C198.21258402 0.09475215 200.55664659 0.09527163 202.90069199 0.09025955 C228.58241667 0.04225227 247.15782295 5.06413635 266.5222168 23.18920898 C282.96725669 40.55735922 290.9707618 61.60612629 290.69018555 85.45483398 C290.68457361 86.85015399 290.68031109 88.24548001 290.67732239 89.64080811 C290.66599901 93.27074195 290.6366439 96.90030182 290.60321045 100.53009033 C290.5722357 104.25104721 290.55875919 107.97206593 290.54370117 111.69311523 C290.51175862 118.96281492 290.46071908 126.23220908 290.3972168 133.50170898 C288.53307381 133.50252614 288.53307381 133.50252614 286.63127136 133.50335979 C257.07469748 133.51742952 227.51827366 133.55729452 197.96178812 133.62856461 C194.3172179 133.63733047 190.67264721 133.64588044 187.02807617 133.65429688 C185.93980662 133.65681547 185.93980662 133.65681547 184.82955182 133.65938494 C173.1100746 133.68599361 161.39064631 133.69514561 149.67114198 133.69775041 C137.62958458 133.70081898 125.58816771 133.72286966 113.54667377 133.76223356 C106.78995655 133.78378501 100.03345469 133.79681319 93.27670288 133.78786278 C86.90724354 133.7802887 80.53826356 133.7962823 74.16889191 133.82976913 C71.84064394 133.83796193 69.51234794 133.83780061 67.18410492 133.8283062 C48.57716427 133.75998643 33.42382134 135.59122059 18.3972168 147.50170898 C17.73334961 148.02249023 17.06948242 148.54327148 16.38549805 149.07983398 C6.66434046 157.73057198 1.20458557 171.02705854 0.11742079 183.78517675 C0.00584221 187.37609896 -0.01536724 190.95613296 -0.00151062 194.54876709 C-0.00696205 195.92856304 -0.01371855 197.30835434 -0.02165252 198.68813825 C-0.0395473 202.44640399 -0.03913697 206.20447082 -0.03552306 209.96276903 C-0.03489593 214.02806771 -0.05154974 218.09330152 -0.06604004 222.15856934 C-0.08877125 229.19088989 -0.10070167 236.22316108 -0.1051693 243.25551605 C-0.11164444 253.42294358 -0.13460576 263.5902821 -0.16151259 273.75767365 C-0.20472932 290.2559984 -0.23472525 306.7543194 -0.25634766 323.25268555 C-0.27737269 339.27353766 -0.30466109 355.29435905 -0.34033203 371.31518555 C-0.34253086 372.3037154 -0.34472968 373.29224525 -0.34699514 374.31073055 C-0.35806517 379.27019482 -0.36925791 384.22965881 -0.38051164 389.18912268 C-0.4736243 430.29329112 -0.54525581 471.39747631 -0.6027832 512.50170898 C-4.28709617 512.52754471 -7.9713855 512.54310195 -11.65576172 512.55688477 C-12.69282509 512.56428177 -13.72988846 512.57167877 -14.79837799 512.57929993 C-22.3052668 512.60034876 -29.2072185 512.0632319 -36.5402832 510.37670898 C-37.58112061 510.15152588 -38.62195801 509.92634277 -39.69433594 509.69433594 C-48.34848115 507.73818394 -56.52340324 505.15722096 -64.6027832 501.50170898 C-65.26036621 501.20925293 -65.91794922 500.91679688 -66.59545898 500.61547852 C-91.35321302 489.43513011 -109.89876195 471.879157 -123.6027832 448.50170898 C-124.40522461 447.23133789 -124.40522461 447.23133789 -125.22387695 445.93530273 C-126.62824889 443.45676529 -127.4928769 441.16895438 -128.2902832 438.43920898 C-128.66733398 437.18430664 -128.66733398 437.18430664 -129.05200195 435.90405273 C-129.6027832 433.50170898 -129.6027832 433.50170898 -129.6027832 429.50170898 C-130.2627832 429.50170898 -130.9227832 429.50170898 -131.6027832 429.50170898 C-133.16819704 420.76956874 -133.89580655 412.36477856 -133.87693787 403.50073242 C-133.88217454 402.25895831 -133.88741122 401.0171842 -133.89280659 399.73778057 C-133.90511306 396.33014845 -133.90865287 392.92272377 -133.90820968 389.51508403 C-133.90987173 385.82433276 -133.92296374 382.13361786 -133.93440247 378.44288635 C-133.95714482 370.39085048 -133.96516138 362.33884114 -133.97022891 354.2867775 C-133.97349842 349.24801496 -133.98002837 344.20925996 -133.9872303 339.17050171 C-134.00678195 325.18729399 -134.02319463 311.20409324 -134.02610683 297.22087097 C-134.0262944 296.32798892 -134.02648197 295.43510686 -134.02667523 294.51516777 C-134.02704145 292.70551777 -134.02740515 290.89586777 -134.02776634 289.08621776 C-134.02794915 288.18805154 -134.02813196 287.28988533 -134.02832031 286.36450195 C-134.02850086 285.46522449 -134.02868141 284.56594702 -134.02886743 283.63941872 C-134.03240586 269.08204818 -134.05941394 254.52482584 -134.0968182 239.96750665 C-134.13501692 224.97963134 -134.15426515 209.99182936 -134.15456635 195.00390434 C-134.15514831 186.60567804 -134.16347046 178.20762863 -134.19256401 169.80944824 C-134.21723324 162.65615542 -134.22425709 155.50310402 -134.20931648 148.34978002 C-134.2022105 144.70953237 -134.20272654 141.06975987 -134.22572708 137.42956734 C-134.32278967 121.09694613 -133.46292185 106.16095917 -128.6027832 90.50170898 C-128.39341436 89.81466196 -128.18404552 89.12761494 -127.96833217 88.41974831 C-121.96345301 68.94088322 -110.58575296 52.14800747 -96.6027832 37.50170898 C-96.07813477 36.91389648 -95.55348633 36.32608398 -95.01293945 35.72045898 C-70.25058123 9.00483587 -35.02090508 -0.15753754 0 0 Z " fill="#3028C6" transform="translate(471.602783203125,280.498291015625)"/>
<path d="M0 0 C3.1353814 -0.03875222 6.27069962 -0.06165073 9.40625 -0.08203125 C10.71770996 -0.09852722 10.71770996 -0.09852722 12.05566406 -0.11535645 C20.93195697 -0.15842533 29.33540562 1.19734331 38 3 C39.54494141 3.29003906 39.54494141 3.29003906 41.12109375 3.5859375 C71.43831466 10.06146041 99.06534503 29.42150498 115.89794922 55.25195312 C126.35669821 71.84137332 131.48773391 88.95566518 131.38768005 108.58352661 C131.39575836 110.52203171 131.39575836 110.52203171 131.40399987 112.49969852 C131.41830903 116.04382862 131.41425592 119.58772331 131.40683305 123.1318655 C131.40206703 126.97118682 131.41464154 130.81045968 131.42485046 134.64976501 C131.44197892 142.15569832 131.44289064 149.66154769 131.43763756 157.16749544 C131.43358233 163.27540794 131.43505543 169.38329579 131.44038582 175.49120712 C131.44113424 176.36332532 131.44188266 177.23544352 131.44265376 178.13398954 C131.44418539 179.90622244 131.44572374 181.67845534 131.44726873 183.45068823 C131.46097305 200.04295672 131.45557138 216.63517796 131.44408352 233.22744535 C131.43416043 248.36739583 131.4470795 263.50722393 131.47101771 278.64715554 C131.4954729 294.23283905 131.50500042 309.81846572 131.49836498 325.40416801 C131.49488607 334.13821653 131.49701611 342.87217109 131.51461601 351.60620499 C131.52941887 359.04385131 131.52986923 366.48133757 131.5125451 373.91898103 C131.50409729 377.70485437 131.50173038 381.49044278 131.51719666 385.27630043 C131.66169556 423.45543093 123.37491361 453.22624286 96.3125 481.0625 C83.28218116 494.04068088 66.97246137 504.25531081 49.01463771 508.51536655 C47.68273444 508.83576405 46.353202 509.16620054 45.02640653 509.50713253 C31.15740612 513.05730136 17.88666115 513.57269313 3.62255859 513.51757812 C1.23357214 513.52301152 -1.15541095 513.53014095 -3.54438782 513.53881836 C-9.97610228 513.55690775 -16.40755739 513.55004454 -22.83927584 513.53730202 C-26.8679618 513.53014287 -30.89661539 513.53154978 -34.92530441 513.53526306 C-35.59778532 513.53587599 -36.27026623 513.53648893 -36.96312534 513.53712043 C-38.32998378 513.53839955 -39.6968422 513.53969641 -41.0637006 513.5410108 C-53.82552444 513.55236711 -66.5872326 513.53938025 -79.34903745 513.51780933 C-90.26139524 513.49993463 -101.17358276 513.50305511 -112.0859375 513.52148438 C-124.81070606 513.54296499 -137.53537378 513.5512775 -150.26015794 513.53903532 C-151.62088099 513.53776134 -152.98160404 513.53650386 -154.34232712 513.53526306 C-155.01153726 513.53464596 -155.6807474 513.53402886 -156.37023664 513.53339306 C-161.05029762 513.52996224 -165.73027436 513.53591833 -170.41032791 513.54518127 C-176.7257996 513.55681057 -183.04095244 513.54858536 -189.35639 513.52560425 C-191.66166723 513.52035527 -193.96697171 513.52176477 -196.27223778 513.53065491 C-220.34530134 513.61487052 -240.93212397 509.59302573 -260 494 C-260.85207031 493.31164062 -261.70414063 492.62328125 -262.58203125 491.9140625 C-276.03352481 480.46686214 -285.10363862 465.73969555 -289.625 448.8125 C-289.8415625 448.01908203 -290.058125 447.22566406 -290.28125 446.40820312 C-290.8618316 444.27402817 -291.43732175 442.13896249 -292 440 C-292.17348465 439.41613022 -292.3469693 438.83226044 -292.52571106 438.23069763 C-293.09755688 435.541166 -293.11961085 433.06410298 -293.11352539 430.31347656 C-293.11344986 429.17259583 -293.11337433 428.03171509 -293.11329651 426.85626221 C-293.10813522 425.63010193 -293.10297394 424.40394165 -293.09765625 423.140625 C-293.0962413 421.88111023 -293.09482635 420.62159546 -293.09336853 419.32391357 C-293.08872073 415.98334881 -293.07974281 412.64285279 -293.06866455 409.30230713 C-293.05841598 405.8903462 -293.05386354 402.47837815 -293.04882812 399.06640625 C-293.03779963 392.3775852 -293.02106189 385.68879657 -293 379 C-291.70440187 378.99761165 -290.40880373 378.99522329 -289.07394505 378.99276257 C-258.30506683 378.93537764 -227.53626747 378.86262929 -196.76747358 378.77101372 C-192.9786904 378.75974583 -189.18990685 378.74860733 -185.40112305 378.73754883 C-184.6468583 378.73534514 -183.89259356 378.73314146 -183.11547231 378.730871 C-170.90952789 378.69551815 -158.70358354 378.67064267 -146.49760694 378.64965298 C-133.96907508 378.62787488 -121.44060954 378.5948054 -108.91213411 378.55129844 C-101.18411013 378.52481629 -93.45616876 378.50709564 -85.72810166 378.50065396 C-79.7978524 378.49476637 -73.86772516 378.47315346 -67.93753433 378.44572449 C-65.50797898 378.43693653 -63.07839911 378.43322324 -60.64882851 378.43499184 C-57.32805202 378.43664582 -54.00784706 378.4199337 -50.68714905 378.39872742 C-49.7289547 378.40357499 -48.77076036 378.40842257 -47.78352982 378.41341704 C-35.59820992 378.28527135 -23.71499107 373.28055501 -14.80859375 364.9296875 C-6.47897263 356.04235957 -0.89314152 343.47671035 -0.8613348 331.24475479 C-0.85586036 330.06288629 -0.85038591 328.88101779 -0.84474558 327.66333508 C-0.84376747 326.36373688 -0.84278936 325.06413867 -0.84178162 323.72515869 C-0.83721576 322.3316473 -0.8322157 320.93813728 -0.82681805 319.54462886 C-0.81323022 315.71133887 -0.80581671 311.87805775 -0.79939139 308.04474998 C-0.79139029 303.91252841 -0.77769151 299.78032534 -0.76467896 295.64811707 C-0.7429121 288.48743518 -0.72476837 281.32675144 -0.70907402 274.16605377 C-0.68637731 263.81284187 -0.65823419 253.45965044 -0.62875474 243.10645589 C-0.58107641 226.30974916 -0.53781287 209.51303406 -0.49731445 192.71630859 C-0.45796076 176.39826812 -0.41653483 160.08023508 -0.37231445 143.76220703 C-0.36822804 142.25385711 -0.36822804 142.25385711 -0.36405908 140.71503547 C-0.35037963 135.6704859 -0.33665935 130.62593644 -0.32291877 125.58138704 C-0.2089502 83.72094018 -0.10214167 41.86047728 0 0 Z " fill="#565BE9" transform="translate(794,416)"/>
<path d="M0 0 C4.57096333 0.02530434 9.14194149 0.0273782 13.71296406 0.03210163 C22.33618523 0.04444729 30.9591993 0.07715279 39.58232999 0.11749959 C49.41329076 0.16248196 59.24426234 0.18427033 69.07530069 0.20428133 C89.2682556 0.24589468 109.46102516 0.31607987 129.65382099 0.40557575 C129.73077913 7.78465705 129.78279593 15.16363242 129.81861591 22.54302692 C129.83357101 25.04599595 129.85394243 27.54893938 129.88013935 30.05181599 C130.02425923 44.18969364 129.89463245 57.59521132 126.65382099 71.40557575 C126.35974549 72.73949725 126.06670055 74.07364635 125.7746706 75.40801716 C120.08638428 100.4598417 103.13885937 123.48408662 81.65382099 137.40557575 C63.57135848 148.37849269 46.26172681 152.89509681 25.27540302 152.74615192 C23.57877842 152.74530357 21.88215272 152.74578485 20.18552876 152.74747944 C15.6244208 152.7483327 11.0635543 152.73081663 6.50250196 152.70975757 C1.71928539 152.69087795 -3.06393801 152.6892315 -7.84718609 152.68568134 C-16.88492751 152.67639379 -25.92255879 152.651825 -34.96025193 152.62163287 C-45.25782579 152.58798586 -55.55540519 152.57157706 -65.85302043 152.55654657 C-87.01746787 152.52527217 -108.18181647 152.47257634 -129.34617901 152.40557575 C-129.36945777 145.12914236 -129.3871727 137.85271713 -129.39799118 130.57625389 C-129.40318626 127.19667517 -129.41022183 123.81712212 -129.42161846 120.43755817 C-129.43380534 116.542776 -129.4394351 112.64802983 -129.44383526 108.753232 C-129.44899654 107.55287815 -129.45415783 106.3525243 -129.45947552 105.11579609 C-129.46005637 96.34498203 -129.22981865 88.14814647 -126.21336651 79.831357 C-125.60764048 78.13696121 -125.05420843 76.42336405 -124.54149151 74.6985445 C-120.4078475 61.03557072 -113.30118114 49.43213575 -104.34617901 38.40557575 C-103.7725462 37.6785445 -103.19891338 36.95151325 -102.60789776 36.20245075 C-92.81060732 24.32411294 -79.0205791 15.23282354 -65.34617901 8.40557575 C-64.24983135 7.85063435 -64.24983135 7.85063435 -63.13133526 7.284482 C-43.40192861 -1.62669112 -21.10476613 -0.13687987 0 0 Z " fill="#3029C7" transform="translate(633.3461790084839,530.5944242477417)"/>
<path d="M0 0 C1.2065625 0.0309375 1.2065625 0.0309375 2.4375 0.0625 C-0.95416933 4.21175869 -4.2668502 7.81173799 -8.5625 11.0625 C-9.5798873 12.04480498 -10.58846117 13.03719597 -11.5625 14.0625 C-11.8925 13.4025 -12.2225 12.7425 -12.5625 12.0625 C-11.08399287 10.24946196 -9.60467625 8.43708402 -8.125 6.625 C-6.88943359 5.11099609 -6.88943359 5.11099609 -5.62890625 3.56640625 C-2.74081625 0.06684918 -2.74081625 0.06684918 0 0 Z " fill="#3933CC" transform="translate(538.5625,560.9375)"/>
<path d="M0 0 C0 0.33 0 0.66 0 1 C-3.63 1.33 -7.26 1.66 -11 2 C-11 2.66 -11 3.32 -11 4 C-15.49885947 4.86516528 -18.01647791 5.30903272 -22 3 C-7.40318907 -0.44419134 -7.40318907 -0.44419134 0 0 Z " fill="#6360D8" transform="translate(455,281)"/>
<path d="M0 0 C-0.66 0 -1.32 0 -2 0 C-2.33 0.66 -2.66 1.32 -3 2 C-4.32488113 2.36548445 -5.66018514 2.6937566 -7 3 C-7.66 3.391875 -8.32 3.78375 -9 4.1875 C-9.66 4.455625 -10.32 4.72375 -11 5 C-13.125 4.05078125 -13.125 4.05078125 -15 3 C-13.25531628 2.29911844 -11.50398839 1.61475991 -9.75 0.9375 C-8.77546875 0.55464844 -7.8009375 0.17179687 -6.796875 -0.22265625 C-3.95992605 -1.01113787 -2.70590448 -1.02437812 0 0 Z " fill="#5E58D7" transform="translate(433,286)"/>
<path d="M0 0 C2 3 2 3 2 6 C1.34 6 0.68 6 0 6 C0 8.31 0 10.62 0 13 C-0.66 13 -1.32 13 -2 13 C-1.85851011 11.3954444 -1.71164314 9.79136233 -1.5625 8.1875 C-1.48128906 7.29417969 -1.40007812 6.40085937 -1.31640625 5.48046875 C-1 3 -1 3 0 0 Z " fill="#3D38CC" transform="translate(342,375)"/>
<path d="M0 0 C-0.625 1.875 -0.625 1.875 -2 4 C-5.125 5.25 -5.125 5.25 -8 6 C-8.66 5.34 -9.32 4.68 -10 4 C-8.71086513 3.32845067 -7.41859796 2.66291141 -6.125 2 C-5.40570312 1.62875 -4.68640625 1.2575 -3.9453125 0.875 C-2 0 -2 0 0 0 Z " fill="#686DED" transform="translate(773,787)"/>
<path d="M0 0 C0 0.99 0 1.98 0 3 C-3.47325181 4.1577506 -6.36067448 4.06866652 -10 4 C-7.02096266 1.02096266 -4.19714671 0 0 0 Z " fill="#453FCF" transform="translate(576,537)"/>
<path d="M0 0 C0.99 0.33 1.98 0.66 3 1 C0.6875 3.5 0.6875 3.5 -2 6 C-2.99 6 -3.98 6 -5 6 C-3.35 4.02 -1.7 2.04 0 0 Z " fill="#3D38CE" transform="translate(382,311)"/>
</svg>
