<svg width="2172" height="724" viewBox="0 0 2172 724" fill="none" xmlns="http://www.w3.org/2000/svg">
<path d="M1404 277C1432.97 247.781 1481.23 249.409 1512 275C1528.8 289.572 1538.71 307.666 1541 330C1541.83 342.637 1541.33 354.743 1538 367L1537.23 370.055C1533.45 383.116 1525.6 394.519 1516 404L1513.74 406.328C1499.26 420.398 1478.41 427.587 1458.38 427.438C1455.95 427.367 1453.53 427.261 1451.11 427.118C1449.29 427.016 1447.47 426.984 1445.65 426.965C1428.3 426.427 1411.64 416.327 1400 404C1398.72 401.731 1398.72 401.731 1398 400H1396V488H1362V259H1396L1397 285L1404 277ZM1489.36 297.672C1473.84 284.571 1452.87 281.821 1433.87 288.532L1431.6 289.344C1419.93 293.156 1411.32 300.555 1404.85 311.032C1397.63 324.249 1394.76 339.473 1398.93 354.254L1399.6 356.344C1401.8 364.28 1405.29 370.183 1410.29 376.715C1419.06 386.669 1432.7 393.271 1445.91 394.571C1462.56 395.408 1478.08 391.645 1490.82 380.383C1502.88 367.904 1507.12 351.624 1507.03 334.711C1506.6 319.816 1500.07 307.837 1489.36 297.672Z" fill="#1f2a2e"/>
<path d="M1723.13 189.5C1728.38 191.789 1731.82 195.27 1735 200C1737.04 206.128 1736.82 212.806 1734.44 218.813C1731.79 224.059 1727.93 227.58 1722.67 230.129C1716.79 232.049 1710.04 232.273 1704.29 229.867C1698.66 226.297 1695.13 222.382 1693 216C1692.17 208.38 1692.18 202.139 1697.04 195.945C1705 188.064 1712.6 185.971 1723.13 189.5Z" fill="#1f2a2e"/>
<path d="M219.99 211.853C220.669 211.849 221.349 211.845 222.049 211.842C224.313 211.831 226.576 211.827 228.84 211.823C230.468 211.817 232.097 211.81 233.725 211.803C239.057 211.782 244.39 211.772 249.723 211.762C251.561 211.758 253.399 211.754 255.237 211.749C263.867 211.73 272.497 211.716 281.127 211.708C291.086 211.698 301.046 211.672 311.005 211.631C318.708 211.601 326.411 211.586 334.114 211.583C338.714 211.581 343.313 211.572 347.912 211.547C352.235 211.523 356.558 211.519 360.882 211.529C362.468 211.53 364.054 211.523 365.64 211.51C367.806 211.492 369.971 211.499 372.137 211.512C373.349 211.51 374.561 211.507 375.809 211.505C379.624 212.097 381.272 213.322 384 216C386.194 220.388 385.309 226.247 385.35 231.121C385.367 232.577 385.394 234.033 385.432 235.488C385.487 237.593 385.509 239.695 385.523 241.801C385.543 243.061 385.563 244.32 385.583 245.618C384.85 249.867 383.254 251.283 380 254C379.67 254.33 379.34 254.66 379 255C376.933 255.1 374.862 255.129 372.793 255.131C371.809 255.134 371.809 255.134 370.805 255.138C368.591 255.144 366.376 255.143 364.162 255.142C362.58 255.145 360.998 255.148 359.417 255.152C356 255.16 352.583 255.165 349.166 255.169C343.751 255.175 338.337 255.191 332.922 255.21C331.068 255.216 329.213 255.223 327.359 255.229C325.965 255.234 325.965 255.234 324.544 255.239C311.935 255.281 299.326 255.314 286.718 255.326C278.219 255.334 269.721 255.357 261.223 255.395C256.729 255.415 252.236 255.427 247.742 255.422C243.502 255.418 239.262 255.432 235.022 255.459C233.477 255.466 231.932 255.467 230.387 255.459C210.518 255.375 192.548 260.919 178.004 274.873C163.563 289.297 155.913 306.637 155.437 327.062C155.465 346.02 162.398 364.723 175.687 378.375C190.809 393.092 209.976 399.492 230.78 399.388C232.115 399.392 233.45 399.398 234.786 399.404C238.374 399.418 241.963 399.413 245.552 399.403C249.328 399.395 253.104 399.402 256.88 399.407C263.217 399.413 269.553 399.405 275.889 399.391C283.191 399.375 290.494 399.38 297.797 399.397C304.094 399.41 310.392 399.412 316.69 399.404C320.439 399.4 324.188 399.399 327.938 399.409C332.118 399.419 336.298 399.405 340.479 399.388C341.705 399.394 342.931 399.4 344.195 399.407C357.303 399.31 368.173 395.686 377.875 386.625C382.889 381.258 385.189 375.103 386.996 368.078C388.446 365.077 390.23 363.838 393 362C396.258 361.482 396.258 361.482 399.91 361.469C401.889 361.461 401.889 361.461 403.908 361.453C404.59 361.462 405.272 361.47 405.975 361.479C408.061 361.5 410.143 361.479 412.228 361.453C413.547 361.458 414.865 361.463 416.223 361.469C418.029 361.476 418.029 361.476 419.871 361.482C423.573 362.095 424.752 363.053 427 366C429.9 378.583 422.999 392.583 416.629 403.094C412.53 409.439 407.392 414.749 402 420C401.277 420.709 400.554 421.418 399.809 422.148C379.678 440.774 353.629 443.38 327.576 443.044C323.608 443.002 319.639 443.009 315.67 443.01C309.021 443.003 302.373 442.963 295.725 442.899C288.091 442.825 280.457 442.797 272.823 442.796C264.606 442.793 256.39 442.76 248.173 442.718C245.841 442.707 243.509 442.702 241.178 442.698C225.418 442.66 210.232 442.529 195 438C193.271 437.561 191.542 437.123 189.812 436.688C161.335 427.604 137.874 406.52 123.992 380.305C119.454 371.279 116.403 361.795 114 352C113.815 351.28 113.629 350.56 113.438 349.818C106.679 320.65 113.477 291.017 129 266C132.024 261.388 135.391 257.174 139 253C139.427 252.492 139.855 251.984 140.295 251.46C159.391 228.834 189.885 211.959 219.99 211.853Z" fill="#1f2a2e"/>
<path d="M409.245 280.694C410.334 280.685 411.424 280.677 412.546 280.668C416.13 280.644 419.713 280.636 423.297 280.629C425.812 280.62 428.327 280.611 430.842 280.602C436.114 280.585 441.387 280.577 446.659 280.574C452.032 280.571 457.404 280.55 462.777 280.513C469.304 280.468 475.83 280.449 482.357 280.448C484.824 280.444 487.291 280.431 489.757 280.41C521.63 280.16 547.721 288 572 309C573.031 309.784 574.062 310.568 575.125 311.375C579.621 315.48 583.279 320.195 587 325C587.916 326.176 587.916 326.176 588.852 327.375C593.78 334.037 597.613 341.222 600.996 348.763C601.658 350.238 602.337 351.705 603.035 353.163C612.559 373.563 612.971 403.759 605.547 425.027C605.036 426.353 604.52 427.678 604 429C603.463 430.48 602.927 431.961 602.391 433.441C594.159 455.34 579.088 475.636 559 488C557.953 488.656 556.907 489.312 555.828 489.988C538.878 500.314 520.796 505.468 500.898 505.42C499.553 505.427 498.207 505.436 496.862 505.446C493.257 505.468 489.653 505.471 486.048 505.469C483.028 505.469 480.008 505.477 476.988 505.486C469.869 505.505 462.75 505.508 455.631 505.501C448.295 505.494 440.959 505.517 433.623 505.554C427.304 505.585 420.984 505.596 414.664 505.592C410.898 505.59 407.133 505.596 403.367 505.62C399.18 505.647 394.995 505.633 390.808 505.615C389.563 505.628 388.319 505.642 387.036 505.655C385.898 505.644 384.76 505.633 383.588 505.621C382.105 505.623 382.105 505.623 380.593 505.624C376.986 504.756 375.942 503.079 374 500C373.467 496.666 373.467 496.666 373.434 492.906C373.427 492.237 373.421 491.568 373.415 490.879C373.408 489.47 373.411 488.061 373.424 486.653C373.437 484.505 373.403 482.362 373.365 480.215C373.364 478.841 373.366 477.467 373.371 476.094C373.37 474.853 373.37 473.612 373.369 472.334C374.222 467.827 375.253 466.684 379 464C383.181 463.274 387.318 463.393 391.551 463.468C393.509 463.471 395.468 463.475 397.426 463.478C399.529 463.486 401.631 463.507 403.734 463.531C408.138 463.579 412.541 463.586 416.945 463.586C428.684 463.592 440.423 463.652 452.161 463.739C459.865 463.795 467.567 463.828 475.271 463.818C478.922 463.815 482.571 463.827 486.222 463.878C508.079 464.173 527.051 461.948 544 447C544.648 446.437 545.297 445.873 545.965 445.293C559.339 432.797 567.529 414.131 568.203 395.898C568.556 375.858 562.622 358.774 548.922 343.91C537.605 332.308 521.07 323.17 504.531 322.853C502.713 322.838 500.894 322.828 499.076 322.823C498.08 322.816 497.084 322.81 496.058 322.803C492.767 322.783 489.475 322.772 486.184 322.762C485.056 322.758 483.928 322.754 482.766 322.749C476.793 322.729 470.821 322.714 464.848 322.705C458.701 322.694 452.554 322.659 446.406 322.62C441.661 322.593 436.916 322.585 432.171 322.582C429.906 322.577 427.641 322.565 425.376 322.547C408.934 322.42 394.177 323.002 381.223 334.59C375.403 340.883 371.774 348.62 370.652 357.09C369.713 359.839 368.499 360.531 366 362C361.572 362.575 357.134 362.515 352.673 362.501C350.506 362.5 348.342 362.542 346.176 362.586C344.794 362.591 343.413 362.594 342.031 362.594C340.779 362.601 339.527 362.608 338.236 362.615C335 362 335 362 332.596 359.611C329.269 354.169 330.408 348.461 331.848 342.477C338.866 319.78 352.486 301.274 373.332 289.344C385.074 283.43 396.184 280.702 409.245 280.694Z" fill="#1f2a2e"/>
<path d="M1928.95 283.621C1954.62 253.432 2000.77 247.761 2035 266L2037.64 267.367C2048.32 273.304 2056.6 281.651 2063 292L2064.53 294.406C2066.15 297.264 2067.33 300.118 2068.5 303.187L2069.72 306.355C2075.87 323.865 2074 329.106 2074 352H1944C1948.16 368.642 1951.4 380.123 1965.81 389.187C1981.73 398.26 1997.32 398.722 2014.81 394.269C2025.08 391.357 2033.64 385.558 2040 377C2046.05 379.202 2051.02 382.837 2056.31 386.437L2059.42 388.502L2062.36 390.496C2063.7 391.396 2063.7 391.396 2065.06 392.314C2066.02 393.149 2066.02 393.149 2067 394C2067 397 2067 397 2064.86 399.379C2041.69 420.643 2018.17 428.088 1987 427C1964.12 425.829 1944.54 416.8 1929 400C1919.18 388.466 1913.99 375.396 1910 361L1909.25 358.391C1906.31 346.491 1907.32 332.826 1910 321L1910.52 318.387C1913.18 306.791 1919.2 294.979 1927 286L1928.95 283.621ZM2022.56 293.375C2004.38 281.39 1981.73 281.418 1963.56 293.312C1952.8 301.546 1945.93 312.523 1944 326H2040V320C2037.29 309.145 2031.36 300.147 2022.56 293.375Z" fill="#1f2a2e"/>
<path d="M1149 262C1149.83 262.299 1150.67 262.598 1151.52 262.906C1169.02 269.73 1184.2 285.086 1191.9 301.971C1197.9 315.823 1199.08 328.105 1199.12 343.062C1199.13 343.979 1199.13 344.895 1199.14 345.84C1199.14 346.709 1199.13 347.577 1199.13 348.473C1199.13 349.249 1199.13 350.025 1199.13 350.824C1199 353.003 1198.56 354.895 1198 357C1176.17 358.283 1154.34 358.119 1132.49 358.069C1127.46 358.058 1122.43 358.054 1117.4 358.049C1107.6 358.038 1097.8 358.021 1088 358C1088 348.1 1088 338.2 1088 328C1126.12 328.495 1126.12 328.495 1165 329C1160.59 311.377 1155 302.621 1139.65 293.227C1128.04 287.857 1111.9 288.15 1099.75 291.625C1089.45 295.47 1081.92 301.522 1074 309C1072.51 310.35 1071.02 311.7 1069.53 313.05C1062.84 319.14 1056.43 325.495 1050.09 331.949C1045.57 336.526 1040.88 340.814 1036 345C1035.1 345.806 1034.2 346.611 1033.27 347.441C1026.69 353.12 1020.06 356.801 1012 360C1011.23 360.317 1010.46 360.634 1009.67 360.961C998.705 365.07 986.513 365.389 974.938 365.375C973.685 365.375 972.433 365.375 971.143 365.375C960.899 365.25 951.273 363.911 941.327 361.54C937.239 360.591 933.118 359.803 929 359C928.859 348.944 929.271 339.024 930 329C935.147 328.719 939.397 329.488 944.372 330.779C954.515 333.375 964.217 334.494 974.688 334.5C975.832 334.506 976.976 334.512 978.155 334.518C995.911 334.259 1007.24 328.353 1019.38 315.928C1020.46 314.806 1021.54 313.685 1022.63 312.562C1024.78 310.351 1026.94 308.146 1029.1 305.941C1029.62 305.415 1030.13 304.888 1030.66 304.345C1034.09 300.857 1037.64 297.582 1041.36 294.416C1043.61 292.47 1045.64 290.344 1047.69 288.187C1073.94 261.773 1113.02 247.507 1149 262Z" fill="#1f2a2e"/>
<path d="M1878.85 272.413C1882.44 275.404 1885.87 278.533 1889 282C1889 282.66 1889 283.32 1889 284C1887.43 285.414 1885.79 286.756 1884.12 288.063C1878.56 292.51 1873.25 297.182 1868 302C1864.68 300.811 1862.38 299.669 1859.88 297.188C1849.8 288.229 1835.69 285.409 1822.62 285.438C1820.97 285.44 1820.97 285.44 1819.29 285.443C1811.08 285.625 1804.48 286.539 1798 292C1794.67 295.758 1793.13 298.238 1792.75 303.313C1793.13 308.982 1794.69 311.8 1798.88 315.625C1807.55 321.322 1819.19 322.832 1829.19 324.938C1876.04 335.175 1876.04 335.175 1887.35 352.266C1893.96 363.221 1895.35 376.665 1892.51 389.175C1888.63 401.688 1880.53 411.482 1869.06 417.559C1861.59 421.162 1853.99 423.809 1846 426C1845.11 426.267 1845.11 426.267 1844.21 426.539C1841.41 427.123 1838.79 427.13 1835.94 427.133C1834.15 427.135 1834.15 427.135 1832.33 427.137C1831.09 427.133 1829.84 427.129 1828.56 427.125C1827.35 427.129 1826.15 427.133 1824.9 427.137C1813.45 427.124 1802.36 427.024 1791.44 423.313C1790.63 423.043 1789.81 422.774 1788.98 422.497C1774.52 417.572 1762.61 409.963 1752 399C1753.52 395.161 1755.78 393.325 1759 390.813C1763.86 386.966 1768.42 382.917 1772.91 378.652C1775 377 1775 377 1778 377C1779.13 378.4 1780.25 379.802 1781.36 381.215C1790.42 391.07 1804.65 396.853 1817.83 397.434C1819.83 397.457 1821.82 397.458 1823.81 397.438C1825.38 397.427 1825.38 397.427 1826.98 397.417C1836.36 397.223 1846.03 396.411 1853.75 390.5C1858.4 385.334 1858.52 380.955 1858.36 374.133C1857.98 370.828 1857.34 368.526 1854.85 366.186C1846.94 361.129 1837.63 358.929 1828.56 357C1826.28 356.491 1824 355.982 1821.71 355.473C1819.48 354.981 1817.24 354.49 1815 354C1775.36 345.252 1775.36 345.252 1764 328C1758.54 317.091 1755.89 305.937 1759.12 293.875C1764.28 278.918 1775.02 269.495 1788.88 262.559C1816.81 250.101 1854.23 253.633 1878.85 272.413Z" fill="#1f2a2e"/>
<path d="M1006 271C1006.86 271.578 1007.71 272.155 1008.6 272.75C1015.68 277.948 1023.13 284.699 1028 292C1027.81 296.071 1025.24 298.093 1022.44 300.813C1021.54 301.686 1020.64 302.56 1019.71 303.461C1016.76 306.222 1013.77 308.912 1010.69 311.527C1009.05 312.955 1007.52 314.445 1006 316C1002.88 313.065 1000.32 310.104 997.812 306.625C990.564 297.221 978.778 290.683 967 289C950.217 287.814 936.201 290.253 922.664 300.824C912.555 309.881 906.605 323.443 905.758 336.828C905.137 352.424 908.957 365.963 919 378.063C928.967 388.673 942.025 394.77 956.513 395.57C970.749 395.911 984.288 390.966 994.871 381.289C996.286 379.897 997.65 378.454 999 377C1003.66 378.592 1007.41 381.118 1011.44 383.875C1012.08 384.309 1012.72 384.744 1013.38 385.191C1014.65 386.047 1015.92 386.905 1017.18 387.765C1019.78 389.526 1022.39 391.263 1025 393C1024.07 399.65 1017.43 404.382 1012.35 408.259C1004.77 413.67 996.848 418.027 988 421C987.329 421.227 986.658 421.454 985.967 421.688C964.42 428.757 941.474 428.046 920.742 418.5C898.186 406.982 883.725 387.718 876 364C869.795 340.584 874.232 316.556 885.812 295.742C893.989 282.693 904.79 273.611 918 266C918.74 265.571 919.48 265.141 920.242 264.699C946.746 250.458 981.602 254.542 1006 271Z" fill="#1f2a2e"/>
<path d="M1650.56 256.688C1651.44 256.684 1652.32 256.681 1653.23 256.678C1667.8 256.796 1667.8 256.796 1671 260C1671.09 262.521 1671.12 265.014 1671.1 267.535C1671.1 268.288 1671.09 269.042 1671.09 269.818C1671.09 272.233 1671.08 274.648 1671.06 277.062C1671.06 278.696 1671.05 280.329 1671.05 281.963C1671.04 285.975 1671.02 289.988 1671 294C1669.97 293.681 1669.97 293.681 1668.91 293.355C1662.81 291.565 1657.35 290.532 1651 290.688C1650.23 290.699 1649.45 290.71 1648.65 290.722C1634.97 291.047 1623 294.183 1613 304C1601.67 317.963 1601.4 332.952 1601.39 350.051C1601.38 352.162 1601.36 354.273 1601.34 356.385C1601.3 361.9 1601.28 367.415 1601.26 372.931C1601.24 378.576 1601.2 384.221 1601.16 389.865C1601.09 400.91 1601.04 411.955 1601 423C1589.78 423 1578.56 423 1567 423C1567 368.88 1567 314.76 1567 259C1578.22 259 1589.44 259 1601 259C1601.49 271.375 1601.49 271.375 1602 284C1605.95 278.775 1605.95 278.775 1609.75 273.438C1620.24 262.073 1635.37 256.408 1650.56 256.688Z" fill="#1f2a2e"/>
<path d="M1324 256.812C1324.76 256.8 1325.51 256.788 1326.29 256.775C1327.04 256.773 1327.79 256.772 1328.56 256.77C1329.55 256.763 1329.55 256.763 1330.57 256.757C1334.11 257.11 1337.55 258.137 1341 259C1341 270.22 1341 281.44 1341 293C1336.71 292.34 1332.42 291.68 1328 291C1313.13 289.979 1299.81 290.32 1287.77 300.285C1280.4 307.423 1273.58 317.488 1272.86 328.023C1272.85 328.742 1272.85 329.461 1272.84 330.201C1272.83 331.447 1272.83 331.447 1272.81 332.717C1272.81 333.619 1272.8 334.521 1272.79 335.45C1272.78 336.407 1272.77 337.363 1272.76 338.348C1272.73 341.508 1272.71 344.668 1272.68 347.828C1272.66 350.02 1272.64 352.211 1272.62 354.403C1272.57 360.17 1272.52 365.937 1272.47 371.704C1272.42 377.589 1272.36 383.474 1272.31 389.359C1272.2 400.906 1272.1 412.453 1272 424C1260.78 424 1249.56 424 1238 424C1238 369.55 1238 315.1 1238 259C1249.22 259 1260.44 259 1272 259C1272.49 270.88 1272.49 270.88 1273 283C1274.67 281.144 1276.34 279.288 1278.06 277.375C1284.9 269.875 1291.6 263.445 1301.31 259.875C1302.2 259.542 1303.08 259.21 1303.99 258.867C1310.56 256.974 1317.21 256.818 1324 256.812Z" fill="#1f2a2e"/>
<path d="M1697 259C1708.55 259 1720.1 259 1732 259C1732 313.45 1732 367.9 1732 424C1720.45 424 1708.9 424 1697 424C1697 369.55 1697 315.1 1697 259Z" fill="#1f2a2e"/>
<path d="M1056 338C1059 339 1059 339 1059.86 340.604C1060.08 341.293 1060.31 341.982 1060.54 342.691C1060.81 343.464 1061.07 344.236 1061.35 345.032C1061.76 346.285 1061.76 346.285 1062.19 347.562C1068.98 366.883 1076.51 381.874 1095.68 391.32C1098.1 392.337 1100.5 393.21 1103 394C1103.7 394.224 1104.41 394.449 1105.13 394.68C1119.74 398.608 1135.76 395.883 1149 389C1153.39 386.099 1157.26 382.875 1160.81 379C1161.53 378.34 1162.26 377.68 1163 377C1167.02 377.269 1169.94 379.86 1173.12 382.125C1173.69 382.525 1174.26 382.925 1174.84 383.338C1176 384.156 1177.16 384.978 1178.31 385.801C1180.8 387.571 1183.31 389.316 1185.81 391.062C1187.21 392.041 1188.6 393.02 1190 394C1186.47 404.742 1173.61 411.87 1164 417C1142.66 427.414 1116.87 430.571 1094 424C1092.96 423.71 1091.93 423.42 1090.86 423.121C1079.3 419.584 1070.16 413.778 1061 406C1060.32 405.481 1059.65 404.961 1058.95 404.426C1046.75 394.718 1036.23 376.936 1032 362C1032.21 359.015 1032.88 358.112 1035.08 356.027C1035.98 355.338 1036.88 354.648 1037.81 353.938C1042.27 350.427 1046.52 346.793 1050.69 342.938C1051.22 342.448 1051.75 341.959 1052.29 341.455C1053.53 340.306 1054.76 339.153 1056 338Z" fill="#1f2a2e"/>
<path d="M692 189C825.427 189 825.427 189 850 212C865.226 227.824 870.642 247.004 870.398 268.511C869.919 286.442 864.73 302.175 853 316L851.164 318.434C840.043 331.623 819.79 340.584 803 343C797.164 343.274 791.337 343.234 785.496 343.195C783.996 343.192 782.496 343.191 780.996 343.189C775.477 343.179 769.957 343.151 764.438 343.125L727 343V423H692V189ZM781.074 217.008C779.698 217.023 778.322 217.034 776.946 217.038C774.939 217.041 774.939 217.041 770.677 217.055C767.132 217.083 763.691 217.11 760.25 217.138L727 217.325V306.324L759.5 306.387C764.291 306.4 769.083 306.414 773.874 306.419C775.847 306.42 775.847 306.42 777.781 306.422C793.177 306.48 807.479 306.078 819.875 295.637C829.455 286.253 834.88 277.174 835.398 263.765C835.625 250.083 831.778 239.69 822.344 229.544C810.904 218.967 796.059 216.849 781.074 217.008Z" fill="#1f2a2e"/>
<defs>
<linearGradient id="paint0_linear_1_653" x1="1692.59" y1="209.732" x2="1736.39" y2="209.732" gradientUnits="userSpaceOnUse">
<stop stop-color="#c1ff72"/>
<stop offset="1" stop-color="#9ae64a"/>
</linearGradient>
<linearGradient id="paint1_linear_1_653" x1="470.563" y1="280.404" x2="470.563" y2="505.655" gradientUnits="userSpaceOnUse">
<stop stop-color="#c1ff72"/>
<stop offset="1" stop-color="#9ae64a"/>
</linearGradient>
<linearGradient id="paint2_linear_1_653" x1="1064.06" y1="256.222" x2="1064.06" y2="365.375" gradientUnits="userSpaceOnUse">
<stop stop-color="#c1ff72"/>
<stop offset="1" stop-color="#9ae64a"/>
</linearGradient>
<linearGradient id="paint3_linear_1_653" x1="950.596" y1="256.011" x2="950.596" y2="426.411" gradientUnits="userSpaceOnUse">
<stop stop-color="#c1ff72"/>
<stop offset="1" stop-color="#9ae64a"/>
</linearGradient>
<linearGradient id="paint4_linear_1_653" x1="1111" y1="338" x2="1111" y2="427.431" gradientUnits="userSpaceOnUse">
<stop stop-color="#c1ff72"/>
<stop offset="1" stop-color="#9ae64a"/>
</linearGradient>
</defs>
</svg>
